<?xml version="1.0" encoding="UTF-8" standalone="no"?>
<!DOCTYPE svg PUBLIC "-//W3C//DTD SVG 1.1//EN"
 "http://www.w3.org/Graphics/SVG/1.1/DTD/svg11.dtd">
<!-- Generated by graphviz version 2.39.20151030.1804 (20151030.1804)
 -->
<!-- Title: G Pages: 1 -->
<svg width="337pt" height="222pt"
 viewBox="0.00 0.00 336.67 221.60" xmlns="http://www.w3.org/2000/svg" xmlns:xlink="http://www.w3.org/1999/xlink">
<g id="graph0" class="graph" transform="scale(1 1) rotate(0) translate(4 217.6)">
<title>G</title>
<polygon fill="white" stroke="transparent" points="-4,4 -4,-217.6 332.672,-217.6 332.672,4 -4,4"/>
<!-- Syntax Tree -->
<g id="node1" class="node">
<title>Syntax Tree</title>
<polygon fill="none" stroke="black" points="227.321,-36 143.26,-36 143.26,-0 227.321,-0 227.321,-36"/>
<text text-anchor="middle" x="185.291" y="-13.8" font-family="Times,serif" font-size="14.00">Syntax Tree</text>
</g>
<!-- Source Program -->
<g id="node2" class="node">
<title>Source Program</title>
<polygon fill="none" stroke="black" points="106.373,-213.6 0.208481,-213.6 0.208481,-177.6 106.373,-177.6 106.373,-213.6"/>
<text text-anchor="middle" x="53.2907" y="-191.4" font-family="Times,serif" font-size="14.00">Source Program</text>
</g>
<!-- Parser -->
<g id="node3" class="node">
<title>Parser</title>
<ellipse fill="none" stroke="black" cx="71.2907" cy="-106.8" rx="35.3276" ry="18"/>
<text text-anchor="middle" x="71.2907" y="-102.6" font-family="Times,serif" font-size="14.00">Parser</text>
</g>
<!-- Source Program&#45;&gt;Parser -->
<g id="edge1" class="edge">
<title>Source Program&#45;&gt;Parser</title>
<path fill="none" stroke="black" d="M57.0203,-177.201C59.4985,-164.975 62.7998,-148.689 65.6029,-134.86"/>
<polygon fill="black" stroke="black" points="69.071,-135.368 67.6275,-124.872 62.2105,-133.977 69.071,-135.368"/>
</g>
<!-- Parser&#45;&gt;Syntax Tree -->
<g id="edge2" class="edge">
<title>Parser&#45;&gt;Syntax Tree</title>
<path fill="none" stroke="black" d="M89.0154,-91.113C101.359,-80.3721 118.332,-65.9637 133.881,-54 139.038,-50.032 144.587,-45.9562 150.064,-42.0388"/>
<polygon fill="black" stroke="black" points="152.394,-44.6783 158.544,-36.0517 148.357,-38.9597 152.394,-44.6783"/>
<text text-anchor="middle" x="157.996" y="-58.2" font-family="Times,serif" font-size="14.00">generate</text>
</g>
<!-- Evaluator -->
<g id="node4" class="node">
<title>Evaluator</title>
<ellipse fill="none" stroke="black" cx="185.291" cy="-106.8" rx="48.654" ry="18"/>
<text text-anchor="middle" x="185.291" y="-102.6" font-family="Times,serif" font-size="14.00">Evaluator</text>
</g>
<!-- Evaluator&#45;&gt;Syntax Tree -->
<g id="edge3" class="edge">
<title>Evaluator&#45;&gt;Syntax Tree</title>
<path fill="none" stroke="black" d="M185.291,-88.4006C185.291,-76.2949 185.291,-60.2076 185.291,-46.4674"/>
<polygon fill="black" stroke="black" points="188.791,-46.072 185.291,-36.072 181.791,-46.0721 188.791,-46.072"/>
<text text-anchor="middle" x="208.611" y="-58.2" font-family="Times,serif" font-size="14.00">evaluate</text>
</g>
<!-- Loader -->
<g id="node5" class="node">
<title>Loader</title>
<ellipse fill="none" stroke="black" cx="290.291" cy="-106.8" rx="38.2626" ry="18"/>
<text text-anchor="middle" x="290.291" y="-102.6" font-family="Times,serif" font-size="14.00">Loader</text>
</g>
<!-- Loader&#45;&gt;Syntax Tree -->
<g id="edge4" class="edge">
<title>Loader&#45;&gt;Syntax Tree</title>
<path fill="none" stroke="black" d="M274.387,-89.9155C263.954,-79.183 249.792,-65.2435 236.291,-54 231.427,-49.9492 226.127,-45.8729 220.845,-41.9936"/>
<polygon fill="black" stroke="black" points="222.787,-39.0793 212.622,-36.0917 218.705,-44.7662 222.787,-39.0793"/>
<text text-anchor="middle" x="267.343" y="-58.2" font-family="Times,serif" font-size="14.00">load</text>
</g>
<!-- Thread System -->
<g id="node6" class="node">
<title>Thread System</title>
<ellipse fill="none" stroke="black" cx="194.291" cy="-195.6" rx="69.4612" ry="18"/>
<text text-anchor="middle" x="194.291" y="-191.4" font-family="Times,serif" font-size="14.00">Thread System</text>
</g>
<!-- Thread System&#45;&gt;Evaluator -->
<g id="edge5" class="edge">
<title>Thread System&#45;&gt;Evaluator</title>
<path fill="none" stroke="black" d="M192.426,-177.201C191.187,-164.975 189.536,-148.689 188.135,-134.86"/>
<polygon fill="black" stroke="black" points="191.613,-134.468 187.122,-124.872 184.649,-135.174 191.613,-134.468"/>
<text text-anchor="middle" x="231.919" y="-147" font-family="Times,serif" font-size="14.00">context switch</text>
</g>
</g>
</svg>
