<?xml version="1.0" encoding="UTF-8" standalone="no"?>
<!DOCTYPE svg PUBLIC "-//W3C//DTD SVG 1.1//EN"
 "http://www.w3.org/Graphics/SVG/1.1/DTD/svg11.dtd">
<!-- Generated by graphviz version 2.39.20151030.1804 (20151030.1804)
 -->
<!-- Title: linearization Pages: 1 -->
<svg width="65pt" height="332pt"
 viewBox="0.00 0.00 64.82 332.00" xmlns="http://www.w3.org/2000/svg" xmlns:xlink="http://www.w3.org/1999/xlink">
<g id="graph0" class="graph" transform="scale(1 1) rotate(0) translate(4 328)">
<title>linearization</title>
<polygon fill="white" stroke="transparent" points="-4,4 -4,-328 60.8156,-328 60.8156,4 -4,4"/>
<!-- trait D -->
<g id="node1" class="node">
<title>trait D</title>
<polygon fill="none" stroke="black" points="55.4078,-108 1.4078,-108 1.4078,-72 55.4078,-72 55.4078,-108"/>
<text text-anchor="middle" x="28.4078" y="-85.8" font-family="Times,serif" font-size="14.00">trait D</text>
</g>
<!-- class E -->
<g id="node2" class="node">
<title>class E</title>
<polygon fill="none" stroke="black" points="56.17,-36 0.645578,-36 0.645578,-0 56.17,-0 56.17,-36"/>
<text text-anchor="middle" x="28.4078" y="-13.8" font-family="Times,serif" font-size="14.00">class E</text>
</g>
<!-- trait D&#45;&gt;class E -->
<g id="edge1" class="edge">
<title>trait D&#45;&gt;class E</title>
<path fill="none" stroke="black" d="M28.4078,-61.5726C28.4078,-53.1084 28.4078,-44.0593 28.4078,-36.4133"/>
<polygon fill="black" stroke="black" points="24.9079,-61.8313 28.4078,-71.8314 31.9079,-61.8314 24.9079,-61.8313"/>
</g>
<!-- trait C -->
<g id="node3" class="node">
<title>trait C</title>
<polygon fill="none" stroke="black" points="55.4078,-180 1.4078,-180 1.4078,-144 55.4078,-144 55.4078,-180"/>
<text text-anchor="middle" x="28.4078" y="-157.8" font-family="Times,serif" font-size="14.00">trait C</text>
</g>
<!-- trait C&#45;&gt;trait D -->
<g id="edge2" class="edge">
<title>trait C&#45;&gt;trait D</title>
<path fill="none" stroke="black" d="M28.4078,-133.573C28.4078,-125.108 28.4078,-116.059 28.4078,-108.413"/>
<polygon fill="black" stroke="black" points="24.9079,-133.831 28.4078,-143.831 31.9079,-133.831 24.9079,-133.831"/>
</g>
<!-- trait B -->
<g id="node4" class="node">
<title>trait B</title>
<polygon fill="none" stroke="black" points="55.4078,-252 1.4078,-252 1.4078,-216 55.4078,-216 55.4078,-252"/>
<text text-anchor="middle" x="28.4078" y="-229.8" font-family="Times,serif" font-size="14.00">trait B</text>
</g>
<!-- trait B&#45;&gt;trait C -->
<g id="edge3" class="edge">
<title>trait B&#45;&gt;trait C</title>
<path fill="none" stroke="black" d="M28.4078,-205.573C28.4078,-197.108 28.4078,-188.059 28.4078,-180.413"/>
<polygon fill="black" stroke="black" points="24.9079,-205.831 28.4078,-215.831 31.9079,-205.831 24.9079,-205.831"/>
</g>
<!-- class A -->
<g id="node5" class="node">
<title>class A</title>
<polygon fill="none" stroke="black" points="56.7237,-324 0.0919017,-324 0.0919017,-288 56.7237,-288 56.7237,-324"/>
<text text-anchor="middle" x="28.4078" y="-301.8" font-family="Times,serif" font-size="14.00">class A</text>
</g>
<!-- class A&#45;&gt;trait B -->
<g id="edge4" class="edge">
<title>class A&#45;&gt;trait B</title>
<path fill="none" stroke="black" d="M28.4078,-277.573C28.4078,-269.108 28.4078,-260.059 28.4078,-252.413"/>
<polygon fill="black" stroke="black" points="24.9079,-277.831 28.4078,-287.831 31.9079,-277.831 24.9079,-277.831"/>
</g>
</g>
</svg>
