<?xml version="1.0" encoding="UTF-8" standalone="no"?>
<!DOCTYPE svg PUBLIC "-//W3C//DTD SVG 1.1//EN"
 "http://www.w3.org/Graphics/SVG/1.1/DTD/svg11.dtd">
<!-- Generated by graphviz version 2.39.20151030.1804 (20151030.1804)
 -->
<!-- Title: lexical Pages: 1 -->
<svg width="144pt" height="404pt"
 viewBox="0.00 0.00 143.72 404.00" xmlns="http://www.w3.org/2000/svg" xmlns:xlink="http://www.w3.org/1999/xlink">
<g id="graph0" class="graph" transform="scale(1 1) rotate(0) translate(4 400)">
<title>lexical</title>
<polygon fill="white" stroke="transparent" points="-4,4 -4,-400 139.717,-400 139.717,4 -4,4"/>
<!-- trait Parsers -->
<g id="node1" class="node">
<title>trait Parsers</title>
<polygon fill="none" stroke="black" points="109.329,-396 26.3879,-396 26.3879,-360 109.329,-360 109.329,-396"/>
<text text-anchor="middle" x="67.8584" y="-373.8" font-family="Times,serif" font-size="14.00">trait Parsers</text>
</g>
<!-- trait Scanners -->
<g id="node2" class="node">
<title>trait Scanners</title>
<polygon fill="none" stroke="black" points="113.938,-324 21.7788,-324 21.7788,-288 113.938,-288 113.938,-324"/>
<text text-anchor="middle" x="67.8584" y="-301.8" font-family="Times,serif" font-size="14.00">trait Scanners</text>
</g>
<!-- trait Parsers&#45;&gt;trait Scanners -->
<g id="edge1" class="edge">
<title>trait Parsers&#45;&gt;trait Scanners</title>
<path fill="none" stroke="black" d="M67.8584,-349.573C67.8584,-341.108 67.8584,-332.059 67.8584,-324.413"/>
<polygon fill="black" stroke="black" points="64.3585,-349.831 67.8584,-359.831 71.3585,-349.831 64.3585,-349.831"/>
</g>
<!-- trait Tokens -->
<g id="node3" class="node">
<title>trait Tokens</title>
<polygon fill="none" stroke="black" points="109.618,-252 26.0992,-252 26.0992,-216 109.618,-216 109.618,-252"/>
<text text-anchor="middle" x="67.8584" y="-229.8" font-family="Times,serif" font-size="14.00">trait Tokens</text>
</g>
<!-- trait Scanners&#45;&gt;trait Tokens -->
<g id="edge2" class="edge">
<title>trait Scanners&#45;&gt;trait Tokens</title>
<path fill="none" stroke="black" d="M67.8584,-277.573C67.8584,-269.108 67.8584,-260.059 67.8584,-252.413"/>
<polygon fill="black" stroke="black" points="64.3585,-277.831 67.8584,-287.831 71.3585,-277.831 64.3585,-277.831"/>
</g>
<!-- abstract class Lexical -->
<g id="node4" class="node">
<title>abstract class Lexical</title>
<polygon fill="none" stroke="black" points="135.575,-180 0.141305,-180 0.141305,-144 135.575,-144 135.575,-180"/>
<text text-anchor="middle" x="67.8584" y="-157.8" font-family="Times,serif" font-size="14.00">abstract class Lexical</text>
</g>
<!-- trait Tokens&#45;&gt;abstract class Lexical -->
<g id="edge3" class="edge">
<title>trait Tokens&#45;&gt;abstract class Lexical</title>
<path fill="none" stroke="black" d="M67.8584,-205.573C67.8584,-197.108 67.8584,-188.059 67.8584,-180.413"/>
<polygon fill="black" stroke="black" points="64.3585,-205.831 67.8584,-215.831 71.3585,-205.831 64.3585,-205.831"/>
</g>
<!-- trait StdTokens -->
<g id="node5" class="node">
<title>trait StdTokens</title>
<polygon fill="none" stroke="black" points="118.79,-108 16.9264,-108 16.9264,-72 118.79,-72 118.79,-108"/>
<text text-anchor="middle" x="67.8584" y="-85.8" font-family="Times,serif" font-size="14.00">trait StdTokens</text>
</g>
<!-- abstract class Lexical&#45;&gt;trait StdTokens -->
<g id="edge4" class="edge">
<title>abstract class Lexical&#45;&gt;trait StdTokens</title>
<path fill="none" stroke="black" d="M67.8584,-133.573C67.8584,-125.108 67.8584,-116.059 67.8584,-108.413"/>
<polygon fill="black" stroke="black" points="64.3585,-133.831 67.8584,-143.831 71.3585,-133.831 64.3585,-133.831"/>
</g>
<!-- class StdLexical -->
<g id="node6" class="node">
<title>class StdLexical</title>
<polygon fill="none" stroke="black" points="121.719,-36 13.998,-36 13.998,-0 121.719,-0 121.719,-36"/>
<text text-anchor="middle" x="67.8584" y="-13.8" font-family="Times,serif" font-size="14.00">class StdLexical</text>
</g>
<!-- trait StdTokens&#45;&gt;class StdLexical -->
<g id="edge5" class="edge">
<title>trait StdTokens&#45;&gt;class StdLexical</title>
<path fill="none" stroke="black" d="M67.8584,-61.5726C67.8584,-53.1084 67.8584,-44.0593 67.8584,-36.4133"/>
<polygon fill="black" stroke="black" points="64.3585,-61.8313 67.8584,-71.8314 71.3585,-61.8314 64.3585,-61.8313"/>
</g>
</g>
</svg>
