<?xml version="1.0" encoding="UTF-8" standalone="no"?>
<!DOCTYPE svg PUBLIC "-//W3C//DTD SVG 1.1//EN"
 "http://www.w3.org/Graphics/SVG/1.1/DTD/svg11.dtd">
<!-- Generated by graphviz version 2.39.20151030.1804 (20151030.1804)
 -->
<!-- Title: syntactical Pages: 1 -->
<svg width="181pt" height="260pt"
 viewBox="0.00 0.00 180.66 260.00" xmlns="http://www.w3.org/2000/svg" xmlns:xlink="http://www.w3.org/1999/xlink">
<g id="graph0" class="graph" transform="scale(1 1) rotate(0) translate(4 256)">
<title>syntactical</title>
<polygon fill="white" stroke="transparent" points="-4,4 -4,-256 176.661,-256 176.661,4 -4,4"/>
<!-- trait Parsers -->
<g id="node1" class="node">
<title>trait Parsers</title>
<polygon fill="none" stroke="black" points="127.801,-252 44.8602,-252 44.8602,-216 127.801,-216 127.801,-252"/>
<text text-anchor="middle" x="86.3307" y="-229.8" font-family="Times,serif" font-size="14.00">trait Parsers</text>
</g>
<!-- trait TokenParsers -->
<g id="node2" class="node">
<title>trait TokenParsers</title>
<polygon fill="none" stroke="black" points="145.567,-180 27.0941,-180 27.0941,-144 145.567,-144 145.567,-180"/>
<text text-anchor="middle" x="86.3307" y="-157.8" font-family="Times,serif" font-size="14.00">trait TokenParsers</text>
</g>
<!-- trait Parsers&#45;&gt;trait TokenParsers -->
<g id="edge1" class="edge">
<title>trait Parsers&#45;&gt;trait TokenParsers</title>
<path fill="none" stroke="black" d="M86.3307,-205.573C86.3307,-197.108 86.3307,-188.059 86.3307,-180.413"/>
<polygon fill="black" stroke="black" points="82.8308,-205.831 86.3307,-215.831 89.8308,-205.831 82.8308,-205.831"/>
</g>
<!-- trait StdTokenParsers -->
<g id="node3" class="node">
<title>trait StdTokenParsers</title>
<polygon fill="none" stroke="black" points="154.74,-108 17.9211,-108 17.9211,-72 154.74,-72 154.74,-108"/>
<text text-anchor="middle" x="86.3307" y="-85.8" font-family="Times,serif" font-size="14.00">trait StdTokenParsers</text>
</g>
<!-- trait TokenParsers&#45;&gt;trait StdTokenParsers -->
<g id="edge2" class="edge">
<title>trait TokenParsers&#45;&gt;trait StdTokenParsers</title>
<path fill="none" stroke="black" d="M86.3307,-133.573C86.3307,-125.108 86.3307,-116.059 86.3307,-108.413"/>
<polygon fill="black" stroke="black" points="82.8308,-133.831 86.3307,-143.831 89.8308,-133.831 82.8308,-133.831"/>
</g>
<!-- class StandardTokenParsers -->
<g id="node4" class="node">
<title>class StandardTokenParsers</title>
<polygon fill="none" stroke="black" points="172.492,-36 0.168969,-36 0.168969,-0 172.492,-0 172.492,-36"/>
<text text-anchor="middle" x="86.3307" y="-13.8" font-family="Times,serif" font-size="14.00">class StandardTokenParsers</text>
</g>
<!-- trait StdTokenParsers&#45;&gt;class StandardTokenParsers -->
<g id="edge3" class="edge">
<title>trait StdTokenParsers&#45;&gt;class StandardTokenParsers</title>
<path fill="none" stroke="black" d="M86.3307,-61.5726C86.3307,-53.1084 86.3307,-44.0593 86.3307,-36.4133"/>
<polygon fill="black" stroke="black" points="82.8308,-61.8313 86.3307,-71.8314 89.8308,-61.8314 82.8308,-61.8313"/>
</g>
</g>
</svg>
